<svg xmlns="http://www.w3.org/2000/svg" version="1.1" xmlns:xlink="http://www.w3.org/1999/xlink" width="1024" height="1024"><svg xmlns="http://www.w3.org/2000/svg" xmlns:xlink="http://www.w3.org/1999/xlink" width="1024" zoomAndPan="magnify" viewBox="0 0 768 767.999994" height="1024" preserveAspectRatio="xMidYMid meet" version="1.2"><defs><clipPath id="SvgjsClipPath1007"><path d="M 768 150 L 768 618 C 768 700.84375 700.84375 768 618 768 L 150 768 C 67.15625 768 0 700.84375 0 618 L 0 150 C 0 67.15625 67.15625 0 150 0 L 618 0 C 700.84375 0 768 67.15625 768 150 Z M 768 150 "></path></clipPath><clipPath id="SvgjsClipPath1006"><path d="M 768 150 L 768 618 C 768 700.84375 700.84375 768 618 768 L 150 768 C 67.15625 768 0 700.84375 0 618 L 0 150 C 0 67.15625 67.15625 0 150 0 L 618 0 C 700.84375 0 768 67.15625 768 150 Z M 768 150 "></path></clipPath><clipPath id="SvgjsClipPath1005"><rect x="0" width="768" y="0" height="768"></rect></clipPath></defs><g id="SvgjsG1004"><g clip-rule="nonzero" clip-path="url(#cd9664b434)"><g transform="matrix(1,0,0,1,0,-0.000000000000057351)"><g clip-path="url(#ac8af13a17)"><g clip-rule="nonzero" clip-path="url(#44b18caca9)"><rect x="0" width="768" height="768" y="0" style="fill:#16213e;fill-opacity:1;stroke:none;"></rect></g></g></g></g><g style="fill:#3b82f6;fill-opacity:1;"><g transform="translate(89.044642, 572.955611)"><path style="stroke:none" d="M 208.71875 7.140625 C 176.394531 7.140625 148.410156 1.695312 124.765625 -9.1875 C 101.117188 -20.070312 81.554688 -34.867188 66.078125 -53.578125 C 50.597656 -72.285156 39.03125 -93.800781 31.375 -118.125 C 23.726562 -142.457031 19.90625 -168.0625 19.90625 -194.9375 C 19.90625 -221.8125 23.726562 -247.410156 31.375 -271.734375 C 39.03125 -296.054688 50.597656 -317.570312 66.078125 -336.28125 C 81.554688 -355 101.117188 -369.710938 124.765625 -380.421875 C 148.410156 -391.140625 176.394531 -396.5 208.71875 -396.5 C 240.6875 -396.5 268.40625 -391.054688 291.875 -380.171875 C 315.351562 -369.285156 334.066406 -354.144531 348.015625 -334.75 C 361.960938 -315.363281 370.640625 -292.910156 374.046875 -267.390625 L 293.9375 -267.390625 C 290.53125 -288.148438 280.914062 -303.882812 265.09375 -314.59375 C 249.28125 -325.3125 229.804688 -330.671875 206.671875 -330.671875 C 182.859375 -330.671875 162.785156 -324.972656 146.453125 -313.578125 C 130.128906 -302.179688 117.710938 -286.273438 109.203125 -265.859375 C 100.703125 -245.453125 96.453125 -221.8125 96.453125 -194.9375 C 96.453125 -168.0625 100.703125 -144.332031 109.203125 -123.75 C 117.710938 -103.164062 130.128906 -87.175781 146.453125 -75.78125 C 162.785156 -64.382812 182.859375 -58.6875 206.671875 -58.6875 C 229.804688 -58.6875 249.195312 -64.296875 264.84375 -75.515625 C 280.488281 -86.742188 290.1875 -103.753906 293.9375 -126.546875 L 374.046875 -126.546875 C 370.640625 -99.671875 361.960938 -76.195312 348.015625 -56.125 C 334.066406 -36.0625 315.351562 -20.5 291.875 -9.4375 C 268.40625 1.613281 240.6875 7.140625 208.71875 7.140625 Z M 208.71875 7.140625 "></path></g></g><g style="fill:#3b82f6;fill-opacity:1;"><g transform="translate(536.060917, 572.955611)"><path style="stroke:none" d="M 108.1875 0 L 34.703125 0 L 34.703125 -389.359375 L 108.1875 -389.359375 Z M 108.1875 0 "></path></g></g></g></svg><style>@media (prefers-color-scheme: light) { :root { filter: none; } }
@media (prefers-color-scheme: dark) { :root { filter: none; } }
</style></svg>